# xmcd
#
# Track frame offsets: 
#        150
#        17080
#        30498
#        45952
#        58785
#        70041
#        90847
#        104429
#        114658
#        132353
#        142713
#        154598
#        164569
#        179026
#        208072
#        225294
#        233789
#        254326
#        266842
#        284613
#        295566
#        312689
#        333380
#        348986
#
# Disc length: 4789 seconds
#
# Revision: 0
# Processed by: cddbd v1.5.2PL0 Copyright (c) Steve Scherf et al.
# Submitted via: ExactAudioCopy v0.95b3
#
DISCID=5912b318
DTITLE=The Beatles  - Magical Mystery Year - Deluxe Edition 09 Purple 
DTITLE=Chick-Disc 1 - stereo  FLAC
DYEAR=1900
DGENRE=
TTITLE0=All You Need Is Love (stereo)
TTITLE1=Baby You're A Rich Man (stereo)
TTITLE2=Hello Goodbye (stereo)
TTITLE3=Magical Mystery Tour (stereo)
TTITLE4=Your Mother Should Know (stereo)
TTITLE5=I Am The Walrus (stereo)
TTITLE6=The Fool On The Hill (stereo)
TTITLE7=Flying (stereo)
TTITLE8=Blue Jay Way (stereo)
TTITLE9=Lady Madonna (stereo)
TTITLE10=The Inner Light (stereo)
TTITLE11=All Together Now (stereo)
TTITLE12=Hey Bulldog (stereo)
TTITLE13=It's All Too Much (stereo)
TTITLE14=Across The Universe (stereo)
TTITLE15=Christmas Time (Is Here Again) (stereo)
TTITLE16=I Am The Walrus (US stereo)
TTITLE17=Magical Mystery Tour (88 video stereo)
TTITLE18=Blue Jay Way (88 video stereo)
TTITLE19=Your Mother Should Know (88 video stereo)
TTITLE20=All You Need Is Love (ant dvd)
TTITLE21=I Am The Walrus (ant dvd)
TTITLE22=Hello Goodbye (ant dvd)
TTITLE23=Lady Madonna (ant dvd)
EXTD=
EXTT0=
EXTT1=
EXTT2=
EXTT3=
EXTT4=
EXTT5=
EXTT6=
EXTT7=
EXTT8=
EXTT9=
EXTT10=
EXTT11=
EXTT12=
EXTT13=
EXTT14=
EXTT15=
EXTT16=
EXTT17=
EXTT18=
EXTT19=
EXTT20=
EXTT21=
EXTT22=
EXTT23=
PLAYORDER=
